<?xml version="1.0" encoding="UTF-8" standalone="no"?><!DOCTYPE svg PUBLIC "-//W3C//DTD SVG 1.1//EN" "http://www.w3.org/Graphics/SVG/1.1/DTD/svg11.dtd"><svg width="100%" height="100%" viewBox="0 0 423 358" version="1.1" xmlns="http://www.w3.org/2000/svg" xmlns:xlink="http://www.w3.org/1999/xlink" xml:space="preserve" xmlns:serif="http://www.serif.com/" style="fill-rule:evenodd;clip-rule:evenodd;stroke-linejoin:round;stroke-miterlimit:2;"><path d="M302.61,152.867c0,-82.567 -67.17,-149.742 -149.741,-149.742c-82.571,0 -149.742,67.171 -149.742,149.742c0,60.841 36.458,113.296 88.688,136.716l-82.18,0c-3.597,0 -6.51,2.914 -6.51,6.511l-0,26.041c-0,17.953 14.6,32.553 32.552,32.553l234.375,-0c17.953,-0 32.552,-14.6 32.552,-32.553l0,-26.041c0,-3.597 -2.913,-6.511 -6.51,-6.511l-82.179,0c52.212,-23.405 88.687,-75.879 88.687,-136.716l0.008,-0Zm-13.02,149.741l-0,19.532c-0,10.774 -8.757,19.531 -19.532,19.531l-234.375,-0c-10.774,-0 -19.531,-8.757 -19.531,-19.531l0,-19.532l273.438,0Zm-136.717,-13.02c-75.392,-0 -136.717,-61.33 -136.717,-136.717c0,-75.388 61.329,-136.717 136.717,-136.717c75.387,0 136.717,61.329 136.717,136.717c-0,75.387 -61.33,136.717 -136.717,136.717Z" style="fill-rule:nonzero;stroke:#000;stroke-width:6.25px;"/><path d="M152.873,42.192c-61.021,-0 -110.675,49.641 -110.675,110.675c-0,61.033 49.642,110.675 110.675,110.675c61.033,-0 110.675,-49.642 110.675,-110.675c-0,-61.034 -49.642,-110.675 -110.675,-110.675Zm-0,208.333c-53.842,0 -97.658,-43.817 -97.658,-97.658c-0,-53.859 43.816,-97.659 97.658,-97.659c53.842,0 97.658,43.817 97.658,97.659c0,53.858 -43.816,97.658 -97.658,97.658Z" style="fill-rule:nonzero;stroke:#000;stroke-width:6.25px;"/><path d="M413.29,211.458l-0,-71.616c-0,-3.597 -2.914,-6.511 -6.511,-6.511l0,-55.337c0,-12.24 -5.843,-23.91 -15.625,-31.25l-39.062,-29.297c-1.97,-1.481 -4.623,-1.725 -6.82,-0.618c-2.213,1.106 -3.597,3.352 -3.597,5.826l0,110.675c-3.597,0 -6.51,2.914 -6.51,6.511l-0,71.616c-3.597,0 -6.511,2.914 -6.511,6.511l0,130.208c0,3.597 2.914,6.511 6.511,6.511l78.125,-0c3.597,-0 6.51,-2.914 6.51,-6.511l0,-130.208c0,-3.597 -2.913,-6.511 -6.51,-6.511l-0,0.001Zm-58.592,-175.783l28.646,21.484c6.51,4.883 10.416,12.679 10.416,20.834l0,55.337l-39.062,0l-0,-97.655Zm-6.511,110.675l52.084,0l-0,65.104l-52.084,0l0,-65.104Zm58.592,195.313l-65.104,-0l-0,-117.188l65.104,0l0,117.188Z" style="fill-rule:nonzero;stroke:#000;stroke-width:6.25px;"/></svg>