<?xml version="1.0" encoding="UTF-8" standalone="no"?><!DOCTYPE svg PUBLIC "-//W3C//DTD SVG 1.1//EN" "http://www.w3.org/Graphics/SVG/1.1/DTD/svg11.dtd"><svg width="100%" height="100%" viewBox="0 0 351 351" version="1.1" xmlns="http://www.w3.org/2000/svg" xmlns:xlink="http://www.w3.org/1999/xlink" xml:space="preserve" xmlns:serif="http://www.serif.com/" style="fill-rule:evenodd;clip-rule:evenodd;stroke-linejoin:round;stroke-miterlimit:2;"><path d="M33.682,180.378l0,140.233c0,6.624 5.372,11.996 11.996,11.996l274.575,-0c6.624,-0 11.995,-5.372 11.995,-11.996l0,-140.233l-298.566,-0Zm-12.011,-18.001c-3.304,-0 -6.006,2.685 -6.006,6.005l-0,152.23c-0,16.569 13.444,29.996 30.013,29.996l274.575,0c16.569,0 29.996,-13.428 29.996,-29.996l0,-152.23c0,-3.32 -2.685,-6.005 -6.005,-6.005l-322.573,-0Z"/><path d="M75.462,79.611l-65.609,24.023c-7.78,2.849 -11.784,11.459 -8.935,19.239l13.525,36.963c2.848,7.78 11.475,11.783 19.255,8.935l280.6,-102.717c7.78,-2.848 11.784,-11.474 8.935,-19.254l-13.525,-36.947c-2.849,-7.78 -11.475,-11.784 -19.255,-8.935l-37.549,13.753c-0.081,0.016 -0.162,0.049 -0.244,0.081l-58.804,21.534c-0.081,0.032 -0.179,0.065 -0.277,0.097l-55.5,20.313c-0.065,0.033 -0.113,0.049 -0.179,0.065l-62.158,22.754c-0.098,0.032 -0.179,0.065 -0.277,0.097l-0.003,-0.001Zm51.675,0.261l-40.658,14.876l-7.975,38.444l36.328,-13.298l12.305,-40.022Zm21.224,-7.764l-12.305,40.023l40.658,-14.893l7.991,-38.444l-36.344,13.314Zm56.233,-20.589l-7.975,38.444l37.63,-13.786l9.065,-38.835l-38.72,14.177Zm58.938,-21.566l-9.066,38.834l50.829,-18.603l-11.475,-31.331l-30.288,11.1Zm-204.934,110.529l7.992,-38.444l-47.738,17.464l11.475,31.331l28.271,-10.351Z"/><path d="M56.337,205.411c-0,-3.304 2.685,-6.006 5.989,-6.006l162.938,0c3.304,0 5.989,2.702 5.989,6.006l0,4.313c0,3.321 -2.685,6.006 -5.989,6.006l-162.938,0c-3.304,0 -5.989,-2.685 -5.989,-6.006l-0,-4.313Z" style="fill-rule:nonzero;"/><path d="M56.337,229.107c-0,-3.32 2.685,-6.006 5.989,-6.006l162.938,0c3.304,0 5.989,2.686 5.989,6.006l0,10.693c0,3.321 -2.685,6.006 -5.989,6.006l-162.938,0c-3.304,0 -5.989,-2.685 -5.989,-6.006l-0,-10.693Z" style="fill-rule:nonzero;"/><path d="M74.341,274.503l-0,25.993l138.916,-0l0,-25.993l-138.916,-0Zm-12.012,-18.001c-3.304,-0 -5.99,2.685 -5.99,5.989l0,50c0,3.32 2.686,6.006 5.99,6.006l162.938,-0c3.304,-0 5.989,-2.686 5.989,-6.006l0,-50c0,-3.304 -2.685,-5.989 -5.989,-5.989l-162.938,-0Z"/></svg>