<?xml version="1.0" encoding="UTF-8" standalone="no"?><!DOCTYPE svg PUBLIC "-//W3C//DTD SVG 1.1//EN" "http://www.w3.org/Graphics/SVG/1.1/DTD/svg11.dtd"><svg width="100%" height="100%" viewBox="0 0 411 410" version="1.1" xmlns="http://www.w3.org/2000/svg" xmlns:xlink="http://www.w3.org/1999/xlink" xml:space="preserve" xmlns:serif="http://www.serif.com/" style="fill-rule:evenodd;clip-rule:evenodd;stroke-linejoin:round;stroke-miterlimit:2;"><path d="M404.297,3.167c-5.159,-2.49 -11.36,-0.358 -13.883,4.785l-76.383,155.975l-0.017,-0c-1.513,-7.894 -3.662,-15.641 -6.445,-23.194l33.822,-127.604c1.481,-5.582 -1.856,-11.311 -7.439,-12.776c-5.582,-1.482 -11.295,1.839 -12.776,7.421l-27.637,104.363c-23.161,-37.012 -61.329,-62.063 -104.508,-68.604c-43.163,-6.527 -87.046,6.103 -120.117,34.603c-33.073,28.515 -52.067,70.037 -51.971,113.704c0,0.879 0.098,1.692 0.114,2.539l-0.016,-0c-9.733,1.318 -17.008,9.619 -17.041,19.45l0,19.987c-0.016,27.425 8.22,54.216 23.617,76.904c15.413,22.689 37.272,40.218 62.758,50.342l0,21.158c0.065,15.202 12.403,27.507 27.62,27.54l181.721,-0c15.234,-0.017 27.588,-12.37 27.604,-27.621l0,-21.077c25.489,-10.124 47.363,-27.653 62.759,-50.342c15.397,-22.689 23.633,-49.479 23.633,-76.904l-0,-19.987c-0.033,-10.873 -8.822,-19.678 -19.694,-19.711l-67.675,0l86.716,-177c1.221,-2.474 1.4,-5.338 0.505,-7.959c-0.895,-2.62 -2.783,-4.769 -5.274,-5.989l0.007,-0.003Zm-237.5,59.504c34.229,0.049 67.042,13.688 91.23,37.907c24.186,24.219 37.776,57.033 37.809,91.258c-0,0.782 -0.098,1.514 -0.098,2.279l-20.833,-0c-0,-0.765 0.146,-1.497 0.146,-2.279c0,-38.655 -20.621,-74.383 -54.1,-93.7c-33.48,-19.319 -74.725,-19.319 -108.187,0c-33.48,19.32 -54.1,55.046 -54.1,93.7c-0,0.782 0.146,1.514 0.146,2.279l-20.833,-0c-0,-0.765 -0.098,-1.497 -0.098,-2.279c0.033,-34.212 13.607,-67.008 37.777,-91.229c24.17,-24.202 56.933,-37.858 91.146,-37.939l-0.005,0.003Zm-45.395,131.446c-0,-0.781 -0.31,-1.481 -0.31,-2.279l0.017,0c-0,-25.244 20.459,-45.704 45.687,-45.704c25.244,-0 45.704,20.459 45.704,45.704c0,0.798 -0.244,1.498 -0.309,2.279l-90.789,-0Zm45.395,-68.946c-17.659,0.032 -34.57,7.08 -47.054,19.58c-12.467,12.484 -19.466,29.427 -19.466,47.087c-0,0.765 0.13,1.514 0.146,2.279l-20.833,0c0,-0.765 -0.146,-1.497 -0.146,-2.279c-0,-31.217 16.65,-60.058 43.666,-75.65c27.035,-15.608 60.334,-15.608 87.371,0c27.018,15.593 43.683,44.434 43.683,75.65c0,0.782 -0.13,1.514 -0.146,2.279l-20.833,0c-0,-0.765 0.146,-1.514 0.146,-2.279c0,-17.659 -7.015,-34.602 -19.482,-47.087c-12.468,-12.5 -29.395,-19.548 -47.055,-19.58l0.003,-0Zm128.921,263.754l-181.721,0c-3.727,0 -6.754,-3.011 -6.787,-6.738l0,-18.05l195.279,-0l0,17.952l0,-0.016c0.017,1.807 -0.683,3.548 -1.953,4.834c-1.285,1.286 -3.011,2.018 -4.817,2.018l-0.001,0Zm93.163,-155.112c-0.017,24.088 -7.536,47.591 -21.517,67.237c-13.982,19.629 -33.725,34.424 -56.496,42.317l-212.029,-0c-22.77,-7.894 -42.53,-22.689 -56.509,-42.317c-13.981,-19.645 -21.501,-43.146 -21.501,-67.237l0,-18.864l368.05,-0l0.002,18.864Z" style="fill-rule:nonzero;"/></svg>