<?xml version="1.0" encoding="UTF-8" standalone="no"?><!DOCTYPE svg PUBLIC "-//W3C//DTD SVG 1.1//EN" "http://www.w3.org/Graphics/SVG/1.1/DTD/svg11.dtd"><svg width="100%" height="100%" viewBox="0 0 353 369" version="1.1" xmlns="http://www.w3.org/2000/svg" xmlns:xlink="http://www.w3.org/1999/xlink" xml:space="preserve" xmlns:serif="http://www.serif.com/" style="fill-rule:evenodd;clip-rule:evenodd;stroke-linejoin:round;stroke-miterlimit:2;"><path d="M330.472,0.564c-67.513,15.837 -135.009,31.673 -202.509,47.917c-8.333,2.083 -13.753,9.163 -13.753,17.496l-0,197.917c-0.423,-0.423 -0.83,-0.83 -1.253,-1.253c-0.83,-0.83 -2.084,-1.66 -3.337,-2.084c-0.83,-0.423 -1.66,-0.83 -2.506,-1.253c-1.254,-0.83 -2.914,-1.66 -4.167,-2.083c-2.914,-1.253 -5.827,-2.507 -8.757,-3.337c-3.336,-0.83 -7.08,-1.66 -10.84,-2.083c-5.42,-0.83 -11.246,-0.83 -16.666,-0.423l-1.661,-0c-3.743,0.423 -7.08,1.253 -10.84,2.083c-3.743,0.83 -7.08,2.083 -10.84,3.337c-3.743,1.253 -7.08,2.913 -10.416,4.996c-3.337,2.084 -6.674,4.167 -9.587,6.674c-3.337,2.506 -6.25,5.42 -8.757,8.756c-0.83,0.83 -1.253,1.661 -2.083,2.507c-0.83,0.83 -1.66,2.083 -2.083,3.336c-1.66,2.507 -2.914,4.59 -4.167,7.504c-1.253,2.506 -2.506,4.996 -3.337,7.91c-0.423,1.66 -1.253,3.743 -1.66,5.42c-0.83,2.913 -1.253,5.826 -1.253,8.756l0,9.164c0,0.83 0,1.66 0.423,2.083c0.456,0.83 0.456,1.66 0.456,2.083c0.423,1.254 0.423,2.507 0.83,3.744c1.253,4.59 3.337,9.163 5.827,13.33c2.506,4.167 5.826,7.91 9.586,11.247c0.83,0.83 2.084,1.66 2.914,2.506c0.423,0.423 1.253,0.83 1.66,1.253c0.83,0.424 1.253,0.83 2.083,1.254c2.914,1.66 5.827,3.336 9.164,4.59c2.913,1.253 6.25,2.083 9.163,2.913c2.913,0.83 5.827,1.253 9.163,1.66c2.914,0.423 5.827,0.423 8.757,0.423c4.167,0 8.333,-0.423 12.923,-1.253c4.167,-0.83 8.334,-2.083 12.5,-3.336c3.337,-1.254 6.25,-2.507 9.587,-4.167c3.743,-2.083 7.503,-4.167 10.84,-6.673c3.337,-2.507 6.673,-5.42 9.587,-8.757c1.66,-1.66 2.913,-3.337 4.166,-4.997c1.254,-1.66 2.507,-3.743 3.744,-5.42c1.66,-2.506 2.913,-4.996 4.166,-7.91c1.254,-2.913 2.507,-5.826 3.337,-8.756c0.83,-2.914 1.66,-6.25 1.66,-9.164c0.423,-2.083 0.423,-4.166 0.423,-6.25l0,-149.171c67.496,-15.836 134.992,-32.08 202.509,-47.916l-0,127.083c-0.423,-0.423 -0.83,-0.83 -1.66,-1.253c-0.831,-0.83 -2.084,-1.66 -3.337,-2.084c-0.83,-0.423 -1.66,-0.83 -2.507,-1.253c-1.253,-0.83 -2.913,-1.66 -4.166,-2.083c-2.914,-1.253 -5.827,-2.507 -8.757,-3.337c-3.336,-0.83 -7.08,-1.66 -10.84,-2.083c-5.42,-0.83 -11.247,-0.83 -16.667,-0.423l-1.66,-0c-3.743,0.423 -7.08,1.253 -10.84,2.083c-3.743,0.83 -7.08,2.083 -10.84,3.337c-3.743,1.253 -7.08,3.336 -10.416,4.996c-3.337,2.084 -6.674,4.167 -9.587,6.674c-3.337,2.506 -6.25,5.42 -8.757,8.756c-0.83,0.83 -1.253,1.661 -2.083,2.507c-0.83,0.83 -1.66,2.083 -2.083,3.336c-1.661,2.507 -2.914,4.59 -4.167,7.504c-1.253,2.506 -2.507,4.996 -3.337,7.91c-0.423,1.66 -1.253,3.743 -1.66,5.42c-0.83,2.913 -1.253,5.826 -1.253,8.756l-0,9.164c-0,0.83 -0,1.66 0.423,2.083c0,0.83 0,1.253 0.423,2.083c0.423,1.254 0.423,2.507 0.83,3.744c1.254,4.59 3.337,9.163 5.827,13.33c2.506,4.167 5.827,7.91 9.587,11.247c0.83,0.83 2.083,1.66 2.913,2.506c0.423,0.423 1.253,0.83 1.66,1.253c0.83,0.424 1.253,0.83 2.084,1.254c2.913,1.66 5.826,3.336 9.163,4.59c2.913,1.253 6.25,2.083 9.163,2.913c1.66,0.423 3.337,0.83 4.997,0.83c7.91,1.253 15.413,1.253 22.917,0c7.91,-1.253 15.006,-3.336 22.086,-6.673c0.83,-0.423 1.253,-0.83 2.084,-0.83c3.743,-2.084 7.503,-4.167 10.84,-6.674c3.336,-2.506 6.673,-5.42 9.586,-8.756c1.66,-1.66 2.914,-3.337 4.167,-4.997c1.253,-1.66 2.506,-3.743 3.743,-5.42c1.661,-2.506 2.914,-4.997 4.167,-7.91c1.253,-2.913 2.507,-5.827 2.913,-8.757c0.831,-2.913 1.661,-6.25 1.661,-9.163c0.423,-2.083 0.423,-4.167 0.423,-6.25l-0,-252.083c0.032,-12.061 -10.791,-20.817 -22.038,-17.904l0.002,0.001Zm-216.667,306.25c-0.423,2.507 -0.83,4.59 -1.66,7.08c-0.83,2.507 -1.661,4.59 -2.914,6.673c-0.83,2.084 -2.083,3.744 -3.336,5.827c-1.254,1.66 -2.084,2.913 -3.337,4.59c-0.83,0.83 -1.66,1.66 -2.506,2.913c-1.254,1.254 -2.507,2.507 -4.167,3.744c-1.253,1.253 -2.914,2.083 -4.167,3.337c-1.66,0.83 -2.913,2.083 -4.59,2.913c-2.506,1.66 -5.42,2.913 -8.333,3.743c-2.914,1.254 -6.25,2.084 -9.587,2.507c-2.913,0.423 -5.826,0.83 -9.163,0.83c-3.337,0 -7.08,-0.423 -10.417,-0.83c-1.66,-0.423 -3.336,-0.83 -4.996,-1.253c-1.661,-0.423 -3.337,-0.83 -4.997,-1.66c-1.66,-0.831 -3.337,-1.254 -4.59,-2.507c-0.83,-0.423 -1.66,-0.83 -2.083,-1.253c-0.831,-0.423 -1.254,-0.83 -2.084,-1.253c-0.423,-0.424 -4.166,-4.167 -5.013,-5.013c-1.66,-1.661 -2.913,-3.744 -3.743,-5.827c-1.254,-2.083 -2.084,-4.167 -2.507,-6.25c-0.423,-0.83 -0.423,-2.083 -0.423,-2.914c0,-0.83 -0.423,-1.253 -0.423,-2.083c-0.423,-2.913 -0,-5.827 0.423,-8.757c0.423,-2.506 0.83,-4.59 1.66,-6.673c0.83,-2.913 2.084,-5.42 3.744,-8.333c0.83,-1.66 2.083,-3.337 3.336,-4.997c1.254,-1.66 2.914,-3.336 4.59,-4.997c1.66,-1.66 3.337,-2.913 4.997,-4.59c1.66,-1.253 3.743,-2.506 5.42,-3.743c2.083,-1.253 3.743,-2.083 5.827,-2.913c2.083,-0.831 4.166,-1.661 6.25,-2.507c4.166,-1.253 8.756,-2.506 13.33,-2.913c3.743,-0.424 7.91,-0.424 11.67,-0c2.506,0.423 4.996,0.423 7.91,1.253c2.083,0.423 4.166,1.253 5.826,1.66c1.254,0.423 2.507,0.83 3.744,1.66c1.253,0.83 2.506,1.253 3.743,2.084c0.83,0.423 1.66,1.253 2.507,1.66c3.743,2.913 6.25,6.25 8.333,10.84c2.083,4.166 2.914,8.756 2.914,13.33c-1.189,1.709 -1.189,2.962 -1.189,4.622l0.001,0Zm220.408,-32.08c-0.423,2.507 -0.83,4.59 -1.66,7.08c-0.83,2.507 -1.66,4.59 -2.913,6.673c-0.83,2.084 -2.084,3.744 -3.337,5.827c-1.253,1.66 -2.083,2.913 -3.337,4.59c-0.83,0.83 -1.66,1.66 -2.506,2.913c-1.253,1.254 -2.507,2.507 -4.167,3.744c-1.253,1.253 -2.913,2.083 -4.166,3.337c-1.661,0.83 -2.914,2.083 -4.59,2.913c-0.831,0.423 -1.661,0.83 -2.507,1.253c-5.42,2.507 -10.84,4.167 -16.667,4.997c-5.826,0.83 -11.67,0.83 -17.496,-0c-2.507,-0.423 -4.59,-0.83 -6.674,-1.66c-1.66,-0.423 -3.336,-1.254 -4.59,-1.66c-1.66,-0.831 -2.913,-1.254 -4.59,-2.507c-0.83,-0.423 -1.66,-1.253 -2.506,-1.66c-0.83,-0.423 -1.66,-1.253 -2.083,-1.66c-0.424,-0.423 -0.831,-0.83 -1.254,-0.83c-0.83,-0.83 -1.66,-1.661 -2.083,-2.507c-0.83,-0.83 -1.253,-1.66 -2.083,-2.506c-0.83,-0.83 -1.254,-1.661 -1.661,-2.914c-1.253,-2.083 -2.083,-4.166 -2.506,-6.25c-0.423,-0.83 -0.423,-1.66 -0.423,-2.083c-0,-0.83 -0.423,-1.66 -0.423,-2.083c-0,-1.661 -0.424,-2.914 -0.424,-4.59l0,-4.167c0,-1.253 0.424,-2.914 0.831,-4.167c0.423,-2.083 1.253,-4.166 2.083,-6.25c0.83,-2.506 2.506,-5.42 3.743,-7.503c0.83,-1.253 1.661,-2.507 2.507,-3.744c1.66,-2.083 3.336,-4.166 5.42,-5.826c1.66,-1.66 3.336,-2.914 4.997,-4.167c1.66,-1.253 3.336,-2.506 5.42,-3.337c3.743,-2.083 7.503,-3.743 11.67,-4.996c4.166,-1.253 8.333,-2.084 12.923,-2.914c3.743,-0.423 7.91,-0.423 11.67,0c2.506,0.424 4.997,0.424 7.91,1.254c2.083,0.423 4.167,1.253 5.827,1.66c1.253,0.423 2.506,0.83 3.743,1.66c1.253,0.423 2.507,1.253 3.744,2.083c0.83,0.423 1.66,1.254 2.506,1.66c3.744,2.914 6.25,6.25 8.333,10.84c2.084,4.167 2.914,8.757 2.914,13.33c-1.172,1.254 -1.595,2.507 -1.595,4.167l0,0Zm0,-188.329c-67.496,15.837 -134.992,32.08 -202.083,47.917l-0,-63.755c-0,-3.336 1.253,-4.996 4.59,-5.826c63.329,-15.007 127.083,-29.997 190.412,-45.004c3.744,-0.831 7.504,2.083 7.504,5.826c-0,20.426 -0.424,40.414 -0.424,60.842l0.001,-0Z" style="fill-rule:nonzero;"/></svg>